# xmcd
#
# Track frame offsets:
# 150
# 12339
# 24303
# 24905
# 37470
# 50897
# 64549
# 76326
# 88253
# 114993
# 126732
# 139521
# 155310
# 156437
# 157039
# 168928
# 206880
# 221282
#
# Disc length: 3105 seconds
#
#
# Revision: 0
# Processed by: cddbd v1.5.1PL0 Copyright (c) Steve Scherf et al.
# Submitted via: FreeRIP 2.91 
#
DISCID=f90c1f12
DTITLE=Various Artist - East Texas Hayride
DYEAR=1900
DGENRE=Country
TTITLE0=San Antonio Rose
TTITLE1=Walking the floor over You
TTITLE2=Waiting for a Train
TTITLE3=Beautiful Texas
TTITLE4=I'm thinking tonight of my Blue Eyes
TTITLE5=Back in the Saddle Again
TTITLE6=Wabash Cannon Ball
TTITLE7=Tennnessee Waltz
TTITLE8=Jambalaya
TTITLE9=Blueberry Hill
TTITLE10=I walk the Line
TTITLE11=Faded Love
TTITLE12=Blue Moon of Kentucky
TTITLE13=Long Black Veil
TTITLE14=Blue Eyes Crying in the Rain
TTITLE15=New Pretty Blonde
TTITLE16=Can the Circle be Unbroken
TTITLE17=Waltz Across Texas
EXTD=
EXTT0=
EXTT1=
EXTT2=
EXTT3=
EXTT4=
EXTT5=
EXTT6=
EXTT7=
EXTT8=
EXTT9=
EXTT10=
EXTT11=
EXTT12=
EXTT13=
EXTT14=
EXTT15=
EXTT16=
EXTT17=
PLAYORDER=
